<?xml version="1.0" standalone="no"?><!DOCTYPE svg PUBLIC "-//W3C//DTD SVG 1.1//EN" "http://www.w3.org/Graphics/SVG/1.1/DTD/svg11.dtd"><svg t="1746755590813" class="icon" viewBox="0 0 1024 1024" version="1.1" xmlns="http://www.w3.org/2000/svg" p-id="3681" xmlns:xlink="http://www.w3.org/1999/xlink" width="81" height="81"><path d="M513.326205 608.475262c-80.628342 0-156.431795-31.399127-213.4453-88.411609s-88.411609-132.816958-88.411609-213.4453 31.399127-156.432819 88.411609-213.4453c57.013505-57.013505 132.816958-88.412632 213.4453-88.412632 80.629365 0 156.432819 31.399127 213.446323 88.411609s88.411609 132.816958 88.411609 213.446323-31.399127 156.432819-88.411609 213.4453S593.95557 608.475262 513.326205 608.475262zM513.326205 86.623893c-121.304763 0-219.992413 98.688673-219.992413 219.993436s98.68765 219.993436 219.992413 219.993436 219.993436-98.688673 219.993436-219.993436S634.630968 86.623893 513.326205 86.623893z" p-id="3682" fill="#ffffff"></path><path d="M916.871097 1020.438894c-22.605857 0-40.932248-18.325367-40.932248-40.932248 0-199.945845-162.667823-362.612645-362.612645-362.612645-199.944821 0-362.612645 162.6668-362.612645 362.612645 0 22.606881-18.326391 40.932248-40.932248 40.932248s-40.932248-18.325367-40.932248-40.932248c0-59.986209 11.757788-118.200052 34.945907-173.023682 22.388916-52.93256 54.431703-100.462063 95.238085-141.269467 40.806381-40.806381 88.336908-72.849168 141.269467-95.237061 54.82363-23.188118 113.036449-34.945907 173.022659-34.945907 59.986209 0 118.200052 11.757788 173.023682 34.945907 52.93256 22.387893 100.463086 54.43068 141.269467 95.237061 40.807405 40.807405 72.849168 88.336908 95.238085 141.269467 23.189142 54.82363 34.945907 113.037473 34.945907 173.023682C957.803345 1002.113527 939.476955 1020.438894 916.871097 1020.438894z" p-id="3683" fill="#ffffff"></path></svg>